<?xml version="1.0" encoding="UTF-8"?>
<svg id="Layer_2" xmlns="http://www.w3.org/2000/svg" version="1.1" viewBox="0 0 1000 1000">
  <!-- Generator: Adobe Illustrator 29.2.1, SVG Export Plug-In . SVG Version: 2.1.0 Build 116)  -->
  <defs>
    <style>
      .st0 {
        fill: #b67656;
      }
    </style>
  </defs>
  <path class="st0" d="M500,247c-139.5,0-253,113.5-253,253s113.5,253,253,253,253-113.5,253-253-113.5-253-253-253M500,748c-136.8,0-248-111.3-248-248s111.3-248,248-248,248,111.3,248,248-111.3,248-248,248M500,324.1c-97,0-175.9,78.9-175.9,175.9s78.9,175.9,175.9,175.9,175.9-78.9,175.9-175.9-78.9-175.9-175.9-175.9M673.4,500c0,95.6-77.8,173.4-173.4,173.4s-173.4-77.8-173.4-173.4,77.8-173.4,173.4-173.4,173.4,77.8,173.4,173.4M500,259.5c-132.6,0-240.5,107.9-240.5,240.5s107.9,240.5,240.5,240.5,240.5-107.9,240.5-240.5-107.9-240.5-240.5-240.5M738,500c0,131.2-106.8,238-238,238s-238-106.8-238-238,106.8-238,238-238,238,106.8,238,238M500,334.3c-91.3,0-165.6,74.3-165.6,165.7s74.3,165.7,165.6,165.7,165.6-74.3,165.6-165.7-74.3-165.7-165.6-165.7M500,660.7c-88.6,0-160.7-72.1-160.7-160.7s72.1-160.7,160.7-160.7,160.7,72.1,160.7,160.7-72.1,160.7-160.7,160.7M273.7,546.8l9.3,32.7,38.6-28.7-48-4ZM313.7,553.1l-29,21.6-7-24.6,36,3ZM270.3,474.8l-1.2,34,45.6-15.4-44.4-18.6ZM306.4,493.1l-34.3,11.6.9-25.6,33.3,14ZM289.3,405.2l-11.7,32,48.1-.5-36.4-31.4ZM318,433.8l-36.2.4,8.8-24,27.4,23.6ZM725.2,453.5l-9.4-32.8-38.7,28.8,48.1,4ZM685.1,447.2l29.1-21.6,7,24.7-36.1-3ZM728.6,525.7l1.2-34.1-45.7,15.4,44.5,18.7ZM692.4,507.3l34.4-11.6-.9,25.6-33.4-14ZM709,595.1l.5.4,11.7-32.1-48.3.5,36.1,31.1ZM680.8,566.8l36.3-.4-8.8,24.1-27.5-23.7ZM669.5,655.4l.3.5,20.7-26.4.4-.5-46.1-14.4,24.7,40.7ZM670.1,650.8l-18.8-31,34.6,10.8-15.8,20.2ZM299.8,614.2h-.6c0,.1,19,28.4,19,28.4l27.8-39.2-46.2,10.9ZM304,616.2l35.2-8.3-20.9,29.5-14.3-21.2ZM339.7,592.9l-14.5-30.8-34,34.9,47.9-4.1h.6ZM324.4,567.2l10.9,23.2-36.5,3.1,25.6-26.3ZM314.5,504.9l-43.2,22.7,47.4,11.1-4.3-33.7ZM312.1,509.5l3.2,25.4-35.7-8.3,32.5-17.1ZM322,447.2l-48.1,8.2,41.7,25.2,6.4-33.4ZM282.2,457l36.2-6.2-4.8,25.1-31.4-18.9ZM686.2,494.7l43.3-22.8-47.6-11.1,4.3,33.8ZM688.5,490.1l-3.2-25.5,35.8,8.3-32.6,17.1ZM678.7,552.6l47.1-8.1,1.1-.2-41.8-25.2-6.4,33.5ZM718.6,542.7l-36.3,6.2,4.8-25.2,31.5,19ZM653.6,605.3l48.4,7-32-36.9-16.4,29.9ZM694.7,608.3l-36.4-5.3,12.4-22.5,24.1,27.8ZM331.3,345l-.3-.5-20.7,26.4-.4.5,46.1,14.4-24.7-40.7ZM330.6,349.7l18.8,31-34.6-10.8,15.8-20.2ZM701,386.3h.6c0-.1-19-28.4-19-28.4l-27.8,39.2,46.2-10.9ZM696.8,384.3l-35.2,8.3,20.9-29.5,14.3,21.2ZM624.4,362.5l22.9,24.3.4.4,21.6-43.7-44.3,18.7-.6.2ZM663.1,349.3l-16.2,32.9-17.5-18.7,33.8-14.3ZM661,407.6l14.5,30.8,34-34.9-47.9,4.1h-.6ZM676.4,433.3l-10.9-23.2,36.5-3.1-25.6,26.3ZM347.1,395.2l-48.4-7,32,36.9,16.4-29.9ZM306.1,392.2l36.4,5.3-12.4,22.5-24.1-27.8ZM372.9,321.6l-2.7-3.8-3.1,2.2,2.7,3.8,3.1-2.2ZM370.6,328c-.9,1.3-1.2,2.6-.9,4.1.2,1.5,1.1,3.2,2.6,5.2,1.5,2.1,3,3.6,4.3,4.3,1.4.7,2.8.9,4.2.5,1.5-.4,3.2-1.3,5.2-2.7l9.4-6.4c.6-.4,1.2-.8,1.8-1.1l14-8c.7-.4,1.3-.7,2-1.1l13.2-6.1,18.8-6.5-1.5-4.3-8.9,3.1c-.7-.3-1.4-.8-2-1.5-.6-.7-1.1-1.6-1.5-2.6-.6-1.7-.6-3,0-4,.6-1,1.4-1.7,2.5-2,.8-.3,1.8-.4,2.9-.5,1.1,0,2.1,0,3,.1l-1.3-4.5c-1-.1-2.1-.1-3.3,0-1.2.1-2.3.4-3.1.7-1.3.4-2.4,1.2-3.5,2.2-1.1,1-1.9,2.3-2.3,3.9-.4,1.6-.3,3.4.4,5.5.7,1.9,1.6,3.5,2.9,4.6l-4.9,1.8-5,2.3-5.8-12.8-4.5,2.1,5.8,12.8-5,2.4-15.8,8.9-3.3,2-8.1-11.4c-.7.4-1.9,1.1-3.5,2.1-1.6,1-3,2-4.1,2.8-2.1,1.5-3.6,2.9-4.5,4.2M377.9,327.4c1.1-.8,2.2-1.5,3.3-2.1l5.7,7.9-3.3,2.3c-1.1.8-2,1.2-2.7,1.4-.8.2-1.5.1-2.2-.3-.7-.4-1.5-1.1-2.3-2.3-.7-1.1-1.2-2-1.3-2.7-.1-.8,0-1.5.5-2.1.5-.7,1.2-1.4,2.4-2.2M377.5,318.3l-2.7-3.8-3.1,2.2,2.7,3.8,3.1-2.2ZM426.6,325.1l-1.9-4.2-3.5,1.6,1.9,4.2,3.5-1.6ZM416.1,324.8l1.9,4.2,3.5-1.6-1.9-4.2-3.5,1.6ZM451.5,312.5c-.3.8-.8,1.3-1.7,1.5l-1.2.2,1.1,4.3c1.5-.3,2.4-.4,2.7-.5,2-.5,3.3-1.7,3.9-3.6.6-1.9.5-4.2-.2-7.1l-4.5-17.8-4.8,1.2,4.7,18.7c.3,1.2.3,2.3,0,3.1M462.3,291.1c1.7-.3,3.2.2,4.6,1.3,1.4,1.2,2.4,3.3,2.9,6.5l.2,1.3-11.8,1.9.7,4.5,18.2-3c1.3-.2,2.6-.4,3.9-.4l7.6-.4-2-26-5,.4,1.6,21.5-4.6.3-3.9.4-.3-1.8c-.5-2.8-1.3-5.1-2.4-6.9-1.1-1.8-2.5-3.1-4.2-3.8-1.6-.7-3.4-.9-5.4-.6-.8.1-1.7.4-2.6.7-.9.3-1.8.6-2.5.9l1,3.8,3.7-.6ZM493.7,276.5l.5,26.1h5c0,0-.5-26.2-.5-26.2h-5ZM524,277l-3.8-.4-.5,4.6,3.8.4.5-4.6ZM529.7,277.7l-3.8-.4-.5,4.6,3.8.4.5-4.6ZM553.2,309.5l18.5,6.2,2.9-8.6c.4-1.1.6-2.4.7-3.7,0-1.4-.2-2.8-.9-4.1-.7-1.4-2-2.3-3.8-3l-7-2.3,1.1-1c1.8-1.7,3.6-3.2,5.4-4.5l-2.8-3.1c-1,.5-2,1.2-3.2,2-1.2.8-2.1,1.6-2.9,2.4l-3.5,3.4,1.3,4.1,9.5,3.2c.8.3,1.4.9,1.7,1.9.3,1,.3,2.1-.1,3.3l-1.5,4.3-15.8-5-17.7-3.9-3.8-.7,1.5-13.9c-.8-.2-2.1-.5-4-.8-1.9-.3-3.6-.5-4.9-.7-2.6-.3-4.6-.2-6.1.1-1.5.4-2.6,1.2-3.4,2.4-.8,1.3-1.3,3.1-1.6,5.6-.3,2.6-.2,4.6.3,6.1.5,1.4,1.5,2.5,2.8,3.2,1.4.7,3.2,1.2,5.7,1.4l11,1.2c1,.1,2.1.3,3.1.5l14.9,3.3c1,.2,1.9.5,2.9.8M526.1,299.6l-4-.4c-1.3-.1-2.3-.4-3-.7-.7-.4-1.2-.9-1.5-1.7-.3-.8-.3-1.8-.2-3.2.1-1.3.4-2.2.8-2.9.4-.6,1-1.1,1.8-1.2.8-.2,1.9-.2,3.2,0,1.4.2,2.6.4,3.9.6l-1.1,9.7ZM573.9,321.8l-1.1-.6-1.8,4.1c1.3.7,2.1,1.1,2.4,1.3,1.9.9,3.6.7,5.2-.3,1.6-1,3-2.9,4.2-5.6l5.8,2.1,11.4,6.9c1.3.8,2.6,1,3.9.8.2.6.6,1.2,1.1,1.8.5.6,1.1,1.2,1.8,1.6l6.6,4,5.4-8.9c.3-.6.9-1.6,1.5-3.1.7-1.5,1.3-3,1.9-4.5l-3.8-2.1c-.9,1.9-1.7,3.3-2.2,4.3-.5,1-1.2,2.1-2,3.5l-2.6,4.4-2.4-1.4c-.3-.2-.6-.4-.8-.7-.2-.3-.4-.6-.5-.9.7-.7,1.4-1.6,2.1-2.7l4.2-7-4.3-2.6-4.2,7c-.6,1-1.3,1.7-2.2,2.1-.8.4-1.6.3-2.4-.2l-1.5-.9,6.3-10.5-4.3-2.6-6.3,10.5-5.1-2.5-5.4-2.4,5.8-12.8-4.6-2.1-7.9,17.6c-.5,1.2-1.1,2-1.8,2.5-.7.5-1.5.5-2.3.1M616.2,308.5l-3.3-2-2.3,3.8,3.3,2,2.3-3.8ZM615.5,313.3l3.3,2,2.3-3.8-3.3-2-2.3,3.8ZM621.2,305.5l-3.1-1.8-2.2,3.6,3.1,1.8,2.2-3.6ZM375.2,651.2c.9-1.9,1-3.8.4-5.7-.6-1.9-2.1-4-4.5-6.2l-7-6.7-20,20.9,7,6.7c2.4,2.3,4.6,3.7,6.5,4.1,2,.5,4,.2,5.9-.9,2-1.1,4.2-2.9,6.7-5.6,2.4-2.5,4.1-4.8,5-6.7M369.3,649.5c-.6,1-1.7,2.4-3.3,4-1.8,1.8-3.2,3.2-4.4,4-1.1.8-2.3,1.2-3.5,1.1-1.2,0-2.4-.8-3.7-2l-2.8-2.7,13-13.5,2.8,2.7c1.3,1.3,2.1,2.4,2.4,3.4.2,1,0,2-.5,3.1M379.9,653.8l4.5,3.5,3.6-4.5-4.5-3.5-3.6,4.5ZM378.2,655.9l-13.2,16.7,4.5,3.5,13.2-16.7-4.5-3.5ZM397.3,669.1c-2-.8-4.4-1.4-7.2-1.6l1.3-1.9-4.7-3.2-12,17.6,4.7,3.2,8.1-11.8.9.2c1.8.6,3.7,1.3,5.7,2.1l3.2-4.7ZM399.8,671.2l-10.8,18.3,4.9,2.9,10.8-18.4-4.9-2.9ZM406.1,671.7l2.9-5-4.9-2.9-2.9,5,4.9,2.9ZM419.7,681.7l-10.7,13.1-.9-.4,3.7-16.5-5.1-2.5-4.6,21.4,3.6,1.7-6,7,5,2.4,19.9-23.9-5.1-2.5ZM435.5,687.6c-2.6-.9-5.4-1.5-8.6-1.8l-1.2,3.8c1.1.3,2.4.7,4,1.2,1.6.5,2.8.9,3.7,1.2.9.3,1.4.7,1.7,1.1.2.4.2,1.1,0,1.9l-.4,1.2-4.4-1.2c-2.5-.7-4.5-.8-5.9-.3-1.4.5-2.5,1.8-3.3,3.9-1.6,4.4-.3,7.3,3.9,8.8,2,.7,4.1.9,6.4.7.6.9,1.3,1.5,2,2,.7.5,1.8,1,3.2,1.5l1.6-4c-.4-.3-.7-.6-.8-.9,0-.3,0-.8.2-1.5l3-8.3c.8-2.4.9-4.3.1-5.7-.7-1.5-2.4-2.7-5-3.6M431.7,704.2h-.7c-1.3-.2-2.5-.4-3.5-.8-1.3-.5-1.7-1.4-1.2-2.9.5-1.5,1.6-2,3.1-1.6l3.8,1-1.5,4.3ZM458.8,694.2c-.9-.2-1.8-.3-2.7-.3-.9,0-1.9.2-3.1.5l2.1-9.3-5.6-1.3-6.7,29,5.6,1.3,3.6-15.6h.6c1.2-.1,2.2,0,3.2.2,1.3.3,2,.9,2.3,1.8.3.9.2,2.3-.3,4.1l-2.6,11.1,5.6,1.3,2.6-11.2c.8-3.4.8-6.1.2-7.9-.7-1.9-2.3-3.1-4.9-3.7M483.6,691.8c-1.6.9-2.8,2.3-3.6,4.4-.8,2.1-1.3,5.1-1.6,8.9-.2,3.5,0,6.3.4,8.5.5,2.2,1.5,3.8,3.1,5,1.6,1.2,3.9,1.9,7,2.1,2.3.1,5,0,8.2-.5l.2-4.8c-2.7.2-5.1.3-7,.2-1.8-.1-3.1-.5-4-1.1-.8-.6-1.4-1.5-1.6-2.7-.2-1.2-.3-3.1-.2-5.5v-1.6c.2-2.3.5-4.2,1-5.4.4-1.3,1.1-2.2,2.1-2.7.9-.5,2.3-.7,4.1-.6,1.8.1,4,.5,6.8,1.1l.5-4.7c-3.1-1-6-1.5-8.6-1.7-2.8-.2-5,.2-6.6,1M510.6,698.4c-3.2.2-5.6,1.3-7.1,3.3-1.6,2-2.2,4.8-2.1,8.3.2,3.6,1.2,6.3,2.9,8.1,1.8,1.9,4.2,2.7,7.4,2.5,3.2-.2,5.6-1.3,7.1-3.3,1.6-2,2.2-4.8,2-8.4-.2-3.5-1.2-6.2-2.9-8.1-1.8-1.8-4.2-2.7-7.4-2.5M514.5,714.2c-.6,1-1.6,1.6-2.9,1.7-1.4,0-2.4-.4-3.1-1.3-.7-1-1.1-2.6-1.2-4.8-.1-2.2.1-3.9.7-4.9.6-1,1.6-1.5,2.9-1.6,1.4,0,2.4.4,3.1,1.3.7.9,1.1,2.5,1.2,4.8.1,2.2-.1,3.9-.7,4.9M553.3,694.4c-1.4-1.4-3.4-1.8-6-1.2-1.2.2-2.3.6-3.4,1.2-1.1.6-2.2,1.3-3.4,2.2-.7-.5-1.6-.9-2.5-1-1-.1-1.9-.1-2.9.1-.8.2-1.6.5-2.3.9-.7.4-1.5,1-2.4,1.8l-.2-1.2-5.5,1.1,4.3,20.9,5.6-1.1-3.2-15.6.5-.3c1.1-.6,2.1-1,3-1.2.9-.2,1.5-.1,2,.1.5.3.9.8,1.2,1.5.3.7.6,1.9.9,3.4l2.2,10.7,5.6-1.1-2.2-10.8c-.3-1.3-.6-2.9-1.1-4.7l.6-.3c1.3-.7,2.3-1.1,3.1-1.2,1.1-.2,2,0,2.6.7.6.7,1.1,2,1.4,3.9l2.3,11.1,5.6-1.1-2.3-11.3c-.7-3.5-1.8-6-3.2-7.3M575.6,686.6c-1.9-1.2-4.1-1.4-6.6-.4-.8.3-1.5.7-2.1,1.1-.6.5-1.3,1.2-2.2,2.2l-.4-1.1-5.3,1.9,10.4,28.4,5.4-2-3-8.2c1.3-.2,2.4-.5,3.5-.9,2.2-.8,3.8-1.8,4.8-2.9,1.1-1.1,1.6-2.6,1.7-4.3,0-1.7-.4-3.9-1.3-6.4-1.4-3.7-3-6.2-4.8-7.4M575.7,700.7c-.3,1.1-1.2,1.9-2.7,2.5-.7.3-1.7.5-3,.8l-3.8-10.5.4-.4c.8-.8,1.7-1.3,2.7-1.7,1.3-.5,2.4-.3,3.3.4.9.7,1.7,2.1,2.5,4.1.8,2.1,1,3.6.7,4.7M602.7,689.9c-.3-.1-.6-.5-1-1.1l-4-7.9c-1.1-2.2-2.5-3.6-4.1-4.1-1.6-.5-3.6,0-6,1.1-2.4,1.2-4.8,2.9-7.2,5l1.9,3.5c.9-.6,2.1-1.3,3.6-2.1,1.4-.8,2.6-1.4,3.4-1.8.8-.4,1.5-.5,2-.4.5.1.9.6,1.3,1.3l.6,1.2-3.9,2.4c-2.3,1.3-3.7,2.7-4.3,4.1-.6,1.4-.4,3.1.6,5.1,2.1,4.2,5.1,5.2,9,3.3,1.9-.9,3.5-2.3,4.9-4.1,1,.2,2,.1,2.8,0,.9-.2,2-.6,3.3-1.3l-1.8-3.9c-.5.1-.9.1-1.2,0M596.6,692.6c-1,.9-2,1.6-2.9,2.1-1.2.6-2.2.2-2.9-1.2-.7-1.4-.4-2.5,1-3.4l3.3-2,2,4.1-.5.4ZM614.4,664.8c-1.8-.8-3.9-.5-6,1-.8.5-1.5,1.1-2,1.8-.6.7-1.1,1.6-1.7,2.7l-.7-1-4.7,3.1,11.7,17.8,4.8-3.1-8.8-13.3.3-.4c.8-1,1.6-1.7,2.3-2.3,1.1-.7,2.1-.9,2.9-.5.8.4,1.8,1.4,2.9,3.1l6.3,9.5,4.8-3.1-6.4-9.6c-1.9-2.9-3.8-4.8-5.6-5.6M632.3,647.7l-4.3,3.6,7.6,15.1-.8.6-13.5-10.1-4.3,3.6,17.7,13,3.1-2.6,3.9,8.4,4.3-3.6-13.7-28ZM371.1,580.7h257.9c.6-1,1.3-2,1.9-3.1h-261.7c.6,1,1.2,2.1,1.9,3.1M380.2,593.6h239.7c.8-1,1.6-2,2.4-3.1h-244.4c.8,1,1.6,2.1,2.3,3.1M358,554.7h283.9c.4-1,.8-2,1.2-3.1h-286.2c.4,1,.8,2.1,1.2,3.1M363.8,567.7h272.5c.5-1,1-2,1.5-3.1h-275.4c.5,1,1,2.1,1.5,3.1M406,619.6h188c1.3-1,2.5-2,3.8-3.1h-195.5c1.2,1,2.5,2.1,3.8,3.1M425.3,632.5h149.3c1.8-1,3.5-2,5.2-3.1h-159.7c1.7,1.1,3.4,2.1,5.2,3.1M391.6,606.6h216.9c1-1,2-2,2.9-3.1h-222.8c1,1,1.9,2.1,2.9,3.1M647.1,538.7h-294.3c.3,1,.6,2.1.8,3.1h292.6c.3-1,.6-2.1.8-3.1M544.5,645.5c3-.9,6.1-2,9-3.1h-107.1c3,1.1,6,2.1,9,3.1h89ZM651.1,543.1s-23.3-70.8-25.7-77.9c-2.4-7.1-10-12.7-17.5-12.7s-11,1.7-14.7,6.4l-6.2,7.9c-2.7,3.5-6.8,5.5-11.1,5.5h-15.1c-.6,0-1.1-.5-1.3-1l-4.4-13.2c-2.4-7.2-8.9-12.1-16.3-12.1h-15.5l-6.2-24.3c-.8-3.1-3.6-4.8-6.8-4.8,0,0-.8,0-2.9,0-2.1,0-1.9,0-1.9,0-6.3,0-11.9,3.9-13.6,9.4l-2.1,6.6h-12c-1.3,0-3.6-.4-4.6-2.8l-.2-.9c-.8-3.3-3.6-5.6-6.8-5.6h-12.1c-2.6,0-4.9,1.7-5.8,4.3l-5.1,13.8h0c-1.2,3.6-4.3,6-7.7,6h-7.4c-5.8,0-10.4,4.3-12.3,10.2l-6.5,19.1h-16.2c-1.1,0-4.2.1-4.9.2-9.3.5-17,6.5-19.2,14.9l-16.9,51h265.4s34,0,34,0ZM420.1,458.9h0c1.2-3.7,4-6.4,7.6-6.4h7.4c5.5,0,10.4-3.7,12.3-9.2l5.1-13.8h0c.2-.7.7-1.1,1.3-1.1h12.1c1,0,1.9.8,2.2,2l.3,1.2v.3c1.6,3.7,5,5.9,9.2,5.9h10.5c-1,2.2-3.5,5.3-11.6,8.3-5.5,2.1-9.5,6.5-11.4,12.5l-2,6.4c-1.9,6.1-6.5,10.3-12.5,11.8-1.1.3-2.6.4-3.9.4-1.3,0-32.5,0-32.5,0l6.1-18.1ZM373.2,493.3c1.7-6.5,7.6-10.9,14.9-11.4.7,0,3.7-.2,4.6-.2,0,0,52.2,0,53.6,0,1.7,0,3.4,0,5.2-.5,7.8-1.9,13.5-7.2,16-15l2-6.4c1-3.2,3.3-7.5,8.5-9.5,8.4-3.2,13.1-7.1,14.8-12.2l3.4-10.6c1.1-3.5,4.9-6.1,9-6.1,0,0,0,0,2.1,0,2.1,0,2.7,0,2.7,0,1.5,0,2.2,1.4,2.4,1.9l.6,2.5h-.1s9.1,35,9.1,35l4.8,19h0s2.8,10.6,2.8,10.6c-1.2,0-2.4,0-3.2,0-2.6,0-4.9-2-6.4-3.7-1.5-1.6-9.1-9.7-13-13.8-.3-.4-.6-.7-.9-1-5.4-6.1-9.6-7.2-14.8-7.5-3.6-.1-8.3,1-10.7,3.8-1.7,2.1-2.2,3.4-3.1,7.8l-2.3,13.7-8.2,48.3h-109.2l15.3-45ZM539.2,495.5c2.9,0,34.2-.2,37.8-.2s7.8,3.3,9.1,5.2h0c3.3,4.7,10.5,27.2,13.7,37.9h-127.8l3.7-21.5h0s7-41.4,7.2-42c1.1-4.9,5.9-5.3,8.5-5.3,4.5,0,7.1,1.7,10.2,4.7h0c.1.1,13.2,13.9,15.1,16,.4.4.8.8,1.2,1.2,0,0,0,0,.1.1h0c2.7,2.5,5.6,3.8,8.5,3.9,1.2,0,3,0,4.9,0,3.7,0,7.6,0,7.8,0h0ZM604.8,538.3c-1.8-6.1-10.4-34.4-14.8-40.6-2.2-3.4-7-7.3-13.1-7.3s-37.7.2-38,.2h0c-.6,0-2.3,0-4.3,0l-6.9-26.5-3.4-13.4h14.3c5.3,0,10,3.5,11.7,8.8l4.8,14.3c.6,1.9,2.4,3.1,4.3,3.1h16.3c5.8,0,11.2-2.6,14.9-7.2l6.2-7.9c2.2-2.8,6.5-4.6,11-4.6s11,3.4,13.1,9.8c2.1,6.5,23.5,71.2,23.5,71.2h-39.6ZM569.8,511.7h6.9c.7,0,1.2-.8.9-1.4l-3.5-6.8c-.4-.7-1.4-.7-1.8,0l-3.5,6.8c-.3.7.1,1.4.9,1.4M604,474.8h6.9c.7,0,1.2-.8.9-1.4l-3.5-6.8c-.4-.7-1.4-.7-1.8,0l-3.5,6.8c-.3.7.1,1.4.9,1.4M385.7,499h6.9c.7,0,1.2-.8.9-1.4l-3.5-6.8c-.4-.7-1.4-.7-1.8,0l-3.5,6.8c-.3.7.1,1.4.9,1.4"/>
</svg>